{
	"accessors" : 
	[
		{
			"bufferView" : 2,
			"byteOffset" : 0,
			"componentType" : 5126,
			"count" : 9614,
			"max" : 
			[
				1,
				0.6120656132698059,
				0.3488648533821106,
				1
			],
			"min" : 
			[
				0.006584956776350737,
				0.006584956776350737,
				0,
				1
			],
			"name" : "accessor_color_m0-PolyPaper22_-12354",
			"type" : "VEC4"
		},
		{
			"bufferView" : 2,
			"byteOffset" : 153824,
			"componentType" : 5126,
			"count" : 9660,
			"max" : 
			[
				0.006584956776350737,
				0.006584956776350737,
				0.006584956776350737,
				1
			],
			"min" : 
			[
				0.006584956776350737,
				0.006584956776350737,
				0.006584956776350737,
				1
			],
			"name" : "accessor_color_m1-PolyPaper23_-12356",
			"type" : "VEC4"
		},
		{
			"bufferView" : 2,
			"byteOffset" : 308384,
			"componentType" : 5126,
			"count" : 7836,
			"max" : 
			[
				0.006584956776350737,
				0.006584956776350737,
				0.006584956776350737,
				1
			],
			"min" : 
			[
				0.006584956776350737,
				0.006584956776350737,
				0.006584956776350737,
				1
			],
			"name" : "accessor_color_m2-PolyPaper23_-12358",
			"type" : "VEC4"
		},
		{
			"bufferView" : 0,
			"byteOffset" : 0,
			"componentType" : 5123,
			"count" : 12726,
			"max" : 
			[
				9613
			],
			"min" : 
			[
				0
			],
			"name" : "accessor_indices_0_m0-PolyPaper22_-12354",
			"type" : "SCALAR"
		},
		{
			"bufferView" : 0,
			"byteOffset" : 25452,
			"componentType" : 5123,
			"count" : 10674,
			"max" : 
			[
				9659
			],
			"min" : 
			[
				0
			],
			"name" : "accessor_indices_0_m1-PolyPaper23_-12356",
			"type" : "SCALAR"
		},
		{
			"bufferView" : 0,
			"byteOffset" : 46800,
			"componentType" : 5123,
			"count" : 8706,
			"max" : 
			[
				7835
			],
			"min" : 
			[
				0
			],
			"name" : "accessor_indices_0_m2-PolyPaper23_-12358",
			"type" : "SCALAR"
		},
		{
			"bufferView" : 1,
			"byteOffset" : 115368,
			"componentType" : 5126,
			"count" : 9614,
			"max" : 
			[
				1,
				1,
				1
			],
			"min" : 
			[
				-1,
				-1,
				-1
			],
			"name" : "accessor_normal_m0-PolyPaper22_-12354",
			"type" : "VEC3"
		},
		{
			"bufferView" : 1,
			"byteOffset" : 346656,
			"componentType" : 5126,
			"count" : 9660,
			"max" : 
			[
				0.9627545,
				0.9998659,
				0.999115
			],
			"min" : 
			[
				-0.9630082,
				-0.9998339000000001,
				-0.9990979
			],
			"name" : "accessor_normal_m1-PolyPaper23_-12356",
			"type" : "VEC3"
		},
		{
			"bufferView" : 1,
			"byteOffset" : 556608,
			"componentType" : 5126,
			"count" : 7836,
			"max" : 
			[
				0.9893012,
				0.9999022,
				0.9852168
			],
			"min" : 
			[
				-0.989247,
				-0.9999137,
				-0.9850823
			],
			"name" : "accessor_normal_m2-PolyPaper23_-12358",
			"type" : "VEC3"
		},
		{
			"bufferView" : 1,
			"byteOffset" : 0,
			"componentType" : 5126,
			"count" : 9614,
			"max" : 
			[
				0.3100162,
				1.340051,
				1.100034
			],
			"min" : 
			[
				-0.450037,
				0.9600251,
				0.6299621
			],
			"name" : "accessor_position_m0-PolyPaper22_-12354",
			"type" : "VEC3"
		},
		{
			"bufferView" : 1,
			"byteOffset" : 230736,
			"componentType" : 5126,
			"count" : 9660,
			"max" : 
			[
				0.1841545,
				1.277075,
				0.6995925
			],
			"min" : 
			[
				-0.3372029,
				1.243928,
				0.6889729
			],
			"name" : "accessor_position_m1-PolyPaper23_-12356",
			"type" : "VEC3"
		},
		{
			"bufferView" : 1,
			"byteOffset" : 462576,
			"componentType" : 5126,
			"count" : 7836,
			"max" : 
			[
				-0.01074828,
				1.251002,
				0.69814
			],
			"min" : 
			[
				-0.3161778,
				1.24481,
				0.690394
			],
			"name" : "accessor_position_m2-PolyPaper23_-12358",
			"type" : "VEC3"
		}
	],
	"asset" : 
	{
		"copyright" : "Unknown",
		"generator" : "glTF 1-to-2 Upgrader for Google Blocks",
		"version" : "2.0"
	},
	"bufferViews" : 
	[
		{
			"buffer" : 0,
			"byteLength" : 64212,
			"byteOffset" : 0,
			"name" : "ushortBufferView",
			"target" : 34963
		},
		{
			"buffer" : 0,
			"byteLength" : 650640,
			"byteOffset" : 64212,
			"byteStride" : 12,
			"name" : "vec3BufferView",
			"target" : 34962
		},
		{
			"buffer" : 0,
			"byteLength" : 433760,
			"byteOffset" : 714852,
			"byteStride" : 16,
			"name" : "vec4BufferView",
			"target" : 34962
		}
	],
	"buffers" : 
	[
		{
			"byteLength" : 1148612,
			"name" : "model",
			"uri" : "model.bin"
		}
	],
	"materials" : 
	[
		{
			"alphaMode" : "OPAQUE",
			"doubleSided" : false,
			"name" : "BlocksPaper",
			"pbrMetallicRoughness" : 
			{
				"baseColorFactor" : 
				[
					1,
					1,
					1,
					1
				],
				"metallicFactor" : 0,
				"roughnessFactor" : 0.6
			}
		},
		{
			"alphaMode" : "BLEND",
			"doubleSided" : false,
			"name" : "BlocksGlass",
			"pbrMetallicRoughness" : 
			{
				"baseColorFactor" : 
				[
					0.2,
					0.2,
					1,
					0.3
				],
				"metallicFactor" : 1,
				"roughnessFactor" : 0.4
			}
		},
		{
			"alphaMode" : "OPAQUE",
			"doubleSided" : true,
			"name" : "BlocksGem",
			"pbrMetallicRoughness" : 
			{
				"baseColorFactor" : 
				[
					1,
					0.4,
					1,
					1
				],
				"metallicFactor" : 0,
				"roughnessFactor" : 0.1
			}
		}
	],
	"meshes" : 
	[
		{
			"name" : "mesh_m0-PolyPaper22_-12354",
			"primitives" : 
			[
				{
					"attributes" : 
					{
						"COLOR_0" : 0,
						"NORMAL" : 6,
						"POSITION" : 9
					},
					"indices" : 3,
					"material" : 0,
					"mode" : 4
				}
			]
		},
		{
			"name" : "mesh_m1-PolyPaper23_-12356",
			"primitives" : 
			[
				{
					"attributes" : 
					{
						"COLOR_0" : 1,
						"NORMAL" : 7,
						"POSITION" : 10
					},
					"indices" : 4,
					"material" : 0,
					"mode" : 4
				}
			]
		},
		{
			"name" : "mesh_m2-PolyPaper23_-12358",
			"primitives" : 
			[
				{
					"attributes" : 
					{
						"COLOR_0" : 2,
						"NORMAL" : 8,
						"POSITION" : 11
					},
					"indices" : 5,
					"material" : 0,
					"mode" : 4
				}
			]
		}
	],
	"nodes" : 
	[
		{
			"matrix" : 
			[
				1,
				0,
				0,
				0,
				0,
				1,
				0,
				0,
				0,
				0,
				1,
				0,
				0,
				0,
				0,
				1
			],
			"mesh" : 2,
			"name" : "node_MeshObject-1664441408-PolyPaper23"
		},
		{
			"matrix" : 
			[
				1,
				0,
				0,
				0,
				0,
				1,
				0,
				0,
				0,
				0,
				1,
				0,
				0,
				0,
				0,
				1
			],
			"mesh" : 0,
			"name" : "node_MeshObject1593085760-PolyPaper22"
		},
		{
			"matrix" : 
			[
				1,
				0,
				0,
				0,
				0,
				1,
				0,
				0,
				0,
				0,
				1,
				0,
				0,
				0,
				0,
				1
			],
			"mesh" : 1,
			"name" : "node_MeshObject2111805824-PolyPaper23"
		}
	],
	"scene" : 0,
	"scenes" : 
	[
		{
			"extras" : {},
			"name" : "defaultScene",
			"nodes" : 
			[
				1,
				2,
				0
			]
		}
	]
}